<svg enable-background="new 0 0 512 512" viewBox="0 0 512 512" xmlns="http://www.w3.org/2000/svg"><g fill="#fff"><path d="m256 365.497c-6.773 0-13.513-.081-20.211-.233v29.441c0 11.16 9.049 20.211 20.211 20.211s20.211-9.05 20.211-20.211v-29.441c-6.698.152-13.438.233-20.211.233z"/><path d="m122.822 354.732-11.652 33.298c-3.686 10.535 1.866 22.066 12.401 25.752 2.208.773 4.46 1.14 6.675 1.14 8.35 0 16.162-5.214 19.076-13.541l14.297-40.858c-14.095-1.574-27.738-3.509-40.797-5.791z"/><path d="m400.83 388.029-11.651-33.298c-13.059 2.281-26.703 4.217-40.798 5.791l14.297 40.858c2.914 8.328 10.726 13.541 19.076 13.541 2.214 0 4.467-.366 6.675-1.14 10.535-3.686 16.087-15.217 12.401-25.752z"/><path d="m398.076 162.879c3.663 12.909 5.565 26.403 5.565 40.192 0 15.968-9.401 30.44-23.99 36.93-2.258 1.004-56.063 24.604-122.425 24.604-66.363 0-120.169-23.601-122.426-24.604-14.589-6.49-23.99-20.964-23.99-36.93 0-13.982 1.956-27.66 5.721-40.732-53.919 10.819-116.531 32.54-116.531 75.053 0 28.656 28.164 51.246 83.712 67.141 15.937 4.561 33.641 8.416 52.648 11.511 13.087 2.13 26.799 3.898 40.974 5.29 18.78 1.845 38.378 3.025 58.456 3.5 6.69.158 13.429.244 20.211.244s13.521-.085 20.211-.244c20.076-.474 39.676-1.656 58.456-3.5 14.176-1.392 27.886-3.158 40.973-5.29 19.009-3.095 36.713-6.95 52.65-11.511 55.545-15.895 83.709-38.485 83.709-67.141 0-41.906-61.072-63.593-113.924-74.513z"/><path d="m353.079 157.802c-2.924-6.176-6.424-12.024-10.435-17.475-4.13-5.608-8.789-10.801-13.917-15.492-18.85-17.236-43.944-27.756-71.499-27.756-27.449 0-52.461 10.433-71.285 27.551-5.125 4.659-9.785 9.821-13.916 15.396-4.033 5.439-7.556 11.277-10.501 17.446-6.594 13.813-10.293 29.273-10.293 45.599 0 0 47.456 21.113 105.995 21.113 58.538 0 105.993-21.113 105.993-21.113 0-16.197-3.647-31.538-10.142-45.269z"/></g></svg>